<?xml version="1.0" encoding="UTF-8"?>
<!DOCTYPE svg PUBLIC "-//W3C//DTD SVG 1.1//EN" "http://www.w3.org/Graphics/SVG/1.1/DTD/svg11.dtd">
<svg version="1.1" xmlns="http://www.w3.org/2000/svg" xmlns:xlink="http://www.w3.org/1999/xlink" x="0" y="0" width="768" height="1600" viewBox="0, 0, 768, 1600">
  <g id="Layer_1">
    <g>
      <path d="M59.5,19.5 L709.5,19.5 L709.5,379.5 L59.5,379.5 L59.5,19.5 z" fill="#FFFFFF"/>
      <path d="M59.5,19.5 L709.5,19.5 L709.5,379.5 L59.5,379.5 L59.5,19.5 z" fill-opacity="0" stroke="#000000" stroke-width="1"/>
    </g>
    <g>
      <path d="M90.167,258.333 L178.167,258.333 L178.167,326.333 L90.167,326.333 L90.167,258.333 z" fill="#FFB2B2"/>
      <path d="M90.167,258.333 L178.167,258.333 L178.167,326.333 L90.167,326.333 L90.167,258.333 z" fill-opacity="0" stroke="#000000" stroke-width="1"/>
    </g>
    <g>
      <path d="M287.833,53 L422.167,53 L422.167,198.333 L287.833,198.333 L287.833,53 z" fill="#B2FFE5"/>
      <path d="M287.833,53 L422.167,53 L422.167,198.333 L287.833,198.333 L287.833,53 z" fill-opacity="0" stroke="#000000" stroke-width="1"/>
    </g>
    <g>
      <path d="M171.5,87.667 L287.833,87.667 L287.833,135 L171.5,135 L171.5,87.667 z" fill="#FFE5B2"/>
      <path d="M171.5,87.667 L287.833,87.667 L287.833,135 L171.5,135 L171.5,87.667 z" fill-opacity="0" stroke="#000000" stroke-width="1"/>
    </g>
    <g>
      <path d="M422.167,70.333 L549.5,70.333 L549.5,127.667 L422.167,127.667 L422.167,70.333 z" fill="#B2FFFF"/>
      <path d="M422.167,70.333 L549.5,70.333 L549.5,127.667 L422.167,127.667 L422.167,70.333 z" fill-opacity="0" stroke="#000000" stroke-width="1"/>
    </g>
    <g>
      <path d="M393.167,219 L393.167,198.333 L422.167,198.333 L422.167,127.667 L632.167,127.667 L632.167,188.333 L653.5,188.333 L653.5,246.333 L678.833,246.333 L678.833,279 L616.833,279 L616.833,253 L583.5,253 L583.5,279 L542.833,279 L542.833,253 L512.167,253 L512.167,300.333 L480.167,300.333 L480.167,219 L393.167,219 z" fill="#E5FFB2"/>
      <path d="M393.167,219 L393.167,198.333 L422.167,198.333 L422.167,127.667 L632.167,127.667 L632.167,188.333 L653.5,188.333 L653.5,246.333 L678.833,246.333 L678.833,279 L616.833,279 L616.833,253 L583.5,253 L583.5,279 L542.833,279 L542.833,253 L512.167,253 L512.167,300.333 L480.167,300.333 L480.167,219 L393.167,219 z" fill-opacity="0" stroke="#000000" stroke-width="1"/>
    </g>
    <g>
      <path d="M480.167,346 L430.167,346 L430.167,306 L393.167,306 L393.167,219 L480.167,219 L480.167,346 z" fill="#CCFFB2"/>
      <path d="M480.167,346 L430.167,346 L430.167,306 L393.167,306 L393.167,219 L480.167,219 L480.167,346 z" fill-opacity="0" stroke="#000000" stroke-width="1"/>
    </g>
    <g>
      <path d="M194.833,198.333 L393.167,198.333 L393.167,320.333 L194.833,320.333 L194.833,198.333 z" fill="#FFFFB2"/>
      <path d="M194.833,198.333 L393.167,198.333 L393.167,320.333 L194.833,320.333 L194.833,198.333 z" fill-opacity="0" stroke="#000000" stroke-width="1"/>
    </g>
    <g>
      <path d="M287.833,135 L287.833,198.333 L194.5,198.333 L194.5,258.333 L124.5,258.333 L124.5,135 L287.833,135 z" fill="#FFCCB2"/>
      <path d="M287.833,135 L287.833,198.333 L194.5,198.333 L194.5,258.333 L124.5,258.333 L124.5,135 L287.833,135 z" fill-opacity="0" stroke="#000000" stroke-width="1"/>
    </g>
    <text transform="matrix(1, 0, 0, 1, 535.5, 199)">
      <tspan x="-8.22" y="8" font-family="HelveticaNeue-Bold" font-size="24" fill="#000000">A</tspan>
    </text>
    <text transform="matrix(1, 0, 0, 1, 293.5, 258.833)">
      <tspan x="-8.892" y="8" font-family="HelveticaNeue-Bold" font-size="24" fill="#000000">C</tspan>
    </text>
    <text transform="matrix(1, 0, 0, 1, 133.667, 291.833)">
      <tspan x="-8.892" y="8" font-family="HelveticaNeue-Bold" font-size="24" fill="#000000">D</tspan>
    </text>
    <text transform="matrix(1, 0, 0, 1, 204.551, 182.833)">
      <tspan x="-7.776" y="8" font-family="HelveticaNeue-Bold" font-size="24" fill="#000000">E</tspan>
    </text>
    <text transform="matrix(1, 0, 0, 1, 436.167, 282)">
      <tspan x="-8.448" y="8" font-family="HelveticaNeue-Bold" font-size="24" fill="#000000">B</tspan>
    </text>
    <text transform="matrix(1, 0, 0, 1, 229.167, 110.833)">
      <tspan x="-7.116" y="8" font-family="HelveticaNeue-Bold" font-size="24" fill="#000000">F</tspan>
    </text>
    <text transform="matrix(1, 0, 0, 1, 354.5, 125.167)">
      <tspan x="-9.108" y="8" font-family="HelveticaNeue-Bold" font-size="24" fill="#000000">G</tspan>
    </text>
    <text transform="matrix(1, 0, 0, 1, 485.333, 98.5)">
      <tspan x="-8.892" y="8" font-family="HelveticaNeue-Bold" font-size="24" fill="#000000">H</tspan>
    </text>
    <g>
      <path d="M59.5,1221.5 L709.5,1221.5 L709.5,1581.5 L59.5,1581.5 L59.5,1221.5 z" fill="#FFFFFF"/>
      <path d="M59.5,1221.5 L709.5,1221.5 L709.5,1581.5 L59.5,1581.5 L59.5,1221.5 z" fill-opacity="0" stroke="#000000" stroke-width="1"/>
    </g>
    <g>
      <path d="M90.167,1460.333 L178.167,1460.333 L178.167,1528.333 L90.167,1528.333 L90.167,1460.333 z" fill="#FFE5B2"/>
      <path d="M90.167,1460.333 L178.167,1460.333 L178.167,1528.333 L90.167,1528.333 L90.167,1460.333 z" fill-opacity="0" stroke="#000000" stroke-width="1"/>
    </g>
    <g>
      <path d="M287.833,1255 L422.167,1255 L422.167,1400.333 L287.833,1400.333 L287.833,1255 z" fill="#FFE5B2"/>
      <path d="M287.833,1255 L422.167,1255 L422.167,1400.333 L287.833,1400.333 L287.833,1255 z" fill-opacity="0" stroke="#000000" stroke-width="1"/>
    </g>
    <g>
      <path d="M171.5,1289.667 L287.833,1289.667 L287.833,1337 L171.5,1337 L171.5,1289.667 z" fill="#FFE5B2"/>
      <path d="M171.5,1289.667 L287.833,1289.667 L287.833,1337 L171.5,1337 L171.5,1289.667 z" fill-opacity="0" stroke="#000000" stroke-width="1"/>
    </g>
    <g>
      <path d="M422.167,1272.333 L549.5,1272.333 L549.5,1329.667 L422.167,1329.667 L422.167,1272.333 z" fill="#FFE5B2"/>
      <path d="M422.167,1272.333 L549.5,1272.333 L549.5,1329.667 L422.167,1329.667 L422.167,1272.333 z" fill-opacity="0" stroke="#000000" stroke-width="1"/>
    </g>
    <g>
      <path d="M393.167,1421 L393.167,1400.333 L422.167,1400.333 L422.167,1329.667 L632.167,1329.667 L632.167,1390.333 L653.5,1390.333 L653.5,1448.333 L678.833,1448.333 L678.833,1481 L616.833,1481 L616.833,1455 L583.5,1455 L583.5,1481 L542.833,1481 L542.833,1455 L512.167,1455 L512.167,1502.333 L480.167,1502.333 L480.167,1421 L393.167,1421 z" fill="#FFE5B2"/>
      <path d="M393.167,1421 L393.167,1400.333 L422.167,1400.333 L422.167,1329.667 L632.167,1329.667 L632.167,1390.333 L653.5,1390.333 L653.5,1448.333 L678.833,1448.333 L678.833,1481 L616.833,1481 L616.833,1455 L583.5,1455 L583.5,1481 L542.833,1481 L542.833,1455 L512.167,1455 L512.167,1502.333 L480.167,1502.333 L480.167,1421 L393.167,1421 z" fill-opacity="0" stroke="#000000" stroke-width="1"/>
    </g>
    <g>
      <path d="M480.167,1548 L430.167,1548 L430.167,1508 L393.167,1508 L393.167,1421 L480.167,1421 L480.167,1548 z" fill="#FFE5B2"/>
      <path d="M480.167,1548 L430.167,1548 L430.167,1508 L393.167,1508 L393.167,1421 L480.167,1421 L480.167,1548 z" fill-opacity="0" stroke="#000000" stroke-width="1"/>
    </g>
    <g>
      <path d="M194.833,1400.333 L393.167,1400.333 L393.167,1522.333 L194.833,1522.333 L194.833,1400.333 z" fill="#FFE5B2"/>
      <path d="M194.833,1400.333 L393.167,1400.333 L393.167,1522.333 L194.833,1522.333 L194.833,1400.333 z" fill-opacity="0" stroke="#000000" stroke-width="1"/>
    </g>
    <g>
      <path d="M287.833,1337 L287.833,1400.333 L194.5,1400.333 L194.5,1460.333 L124.5,1460.333 L124.5,1337 L287.833,1337 z" fill="#FFE5B2"/>
      <path d="M287.833,1337 L287.833,1400.333 L194.5,1400.333 L194.5,1460.333 L124.5,1460.333 L124.5,1337 L287.833,1337 z" fill-opacity="0" stroke="#000000" stroke-width="1"/>
    </g>
    <text transform="matrix(1, 0, 0, 1, 535.5, 1401)">
      <tspan x="-25.776" y="8" font-family="HelveticaNeue-Bold" font-size="24" fill="#000000">F (A)</tspan>
    </text>
    <text transform="matrix(1, 0, 0, 1, 293.5, 1460.833)">
      <tspan x="-26.448" y="8" font-family="HelveticaNeue-Bold" font-size="24" fill="#000000">F (C)</tspan>
    </text>
    <text transform="matrix(1, 0, 0, 1, 133.667, 1493.833)">
      <tspan x="-26.448" y="8" font-family="HelveticaNeue-Bold" font-size="24" fill="#000000">F (D)</tspan>
    </text>
    <text transform="matrix(1, 0, 0, 1, 205.667, 1384.833)">
      <tspan x="-25.332" y="8" font-family="HelveticaNeue-Bold" font-size="24" fill="#000000">F (E)</tspan>
    </text>
    <text transform="matrix(1, 0, 0, 1, 436.167, 1484)">
      <tspan x="-26.004" y="8" font-family="HelveticaNeue-Bold" font-size="24" fill="#000000">F (B)</tspan>
    </text>
    <text transform="matrix(1, 0, 0, 1, 229.167, 1312.833)">
      <tspan x="-7.116" y="8" font-family="HelveticaNeue-Bold" font-size="24" fill="#000000">F</tspan>
    </text>
    <text transform="matrix(1, 0, 0, 1, 354.5, 1327.167)">
      <tspan x="-26.664" y="8" font-family="HelveticaNeue-Bold" font-size="24" fill="#000000">F (G)</tspan>
    </text>
    <text transform="matrix(1, 0, 0, 1, 485.333, 1300.5)">
      <tspan x="-26.448" y="8" font-family="HelveticaNeue-Bold" font-size="24" fill="#000000">F (H)</tspan>
    </text>
    <g>
      <path d="M59.5,809.5 L709.5,809.5 L709.5,1169.5 L59.5,1169.5 L59.5,809.5 z" fill="#FFFFFF"/>
      <path d="M59.5,809.5 L709.5,809.5 L709.5,1169.5 L59.5,1169.5 L59.5,809.5 z" fill-opacity="0" stroke="#000000" stroke-width="1"/>
    </g>
    <g>
      <path d="M90.167,1048.333 L178.167,1048.333 L178.167,1116.333 L90.167,1116.333 L90.167,1048.333 z" fill="#FFB2B2"/>
      <path d="M90.167,1048.333 L178.167,1048.333 L178.167,1116.333 L90.167,1116.333 L90.167,1048.333 z" fill-opacity="0" stroke="#000000" stroke-width="1"/>
    </g>
    <g>
      <path d="M287.833,843 L422.167,843 L422.167,988.333 L287.833,988.333 L287.833,843 z" fill="#FFFFB2"/>
      <path d="M287.833,843 L422.167,843 L422.167,988.333 L287.833,988.333 L287.833,843 z" fill-opacity="0" stroke="#000000" stroke-width="1"/>
    </g>
    <g>
      <path d="M171.5,877.667 L287.833,877.667 L287.833,925 L171.5,925 L171.5,877.667 z" fill="#FFE5B2"/>
      <path d="M171.5,877.667 L287.833,877.667 L287.833,925 L171.5,925 L171.5,877.667 z" fill-opacity="0" stroke="#000000" stroke-width="1"/>
    </g>
    <g>
      <path d="M422.167,860.333 L549.5,860.333 L549.5,917.667 L422.167,917.667 L422.167,860.333 z" fill="#B2FFFF"/>
      <path d="M422.167,860.333 L549.5,860.333 L549.5,917.667 L422.167,917.667 L422.167,860.333 z" fill-opacity="0" stroke="#000000" stroke-width="1"/>
    </g>
    <g>
      <path d="M393.167,1009 L393.167,988.333 L422.167,988.333 L422.167,917.667 L632.167,917.667 L632.167,978.333 L653.5,978.333 L653.5,1036.333 L678.833,1036.333 L678.833,1069 L616.833,1069 L616.833,1043 L583.5,1043 L583.5,1069 L542.833,1069 L542.833,1043 L512.167,1043 L512.167,1090.333 L480.167,1090.333 L480.167,1009 L393.167,1009 z" fill="#E5FFB2"/>
      <path d="M393.167,1009 L393.167,988.333 L422.167,988.333 L422.167,917.667 L632.167,917.667 L632.167,978.333 L653.5,978.333 L653.5,1036.333 L678.833,1036.333 L678.833,1069 L616.833,1069 L616.833,1043 L583.5,1043 L583.5,1069 L542.833,1069 L542.833,1043 L512.167,1043 L512.167,1090.333 L480.167,1090.333 L480.167,1009 L393.167,1009 z" fill-opacity="0" stroke="#000000" stroke-width="1"/>
    </g>
    <g>
      <path d="M480.167,1136 L430.167,1136 L430.167,1096 L393.167,1096 L393.167,1009 L480.167,1009 L480.167,1136 z" fill="#CCFFB2"/>
      <path d="M480.167,1136 L430.167,1136 L430.167,1096 L393.167,1096 L393.167,1009 L480.167,1009 L480.167,1136 z" fill-opacity="0" stroke="#000000" stroke-width="1"/>
    </g>
    <g>
      <path d="M194.833,988.333 L393.167,988.333 L393.167,1110.333 L194.833,1110.333 L194.833,988.333 z" fill="#FFFFB2"/>
      <path d="M194.833,988.333 L393.167,988.333 L393.167,1110.333 L194.833,1110.333 L194.833,988.333 z" fill-opacity="0" stroke="#000000" stroke-width="1"/>
    </g>
    <g>
      <path d="M287.833,925 L287.833,988.333 L194.5,988.333 L194.5,1048.333 L124.5,1048.333 L124.5,925 L287.833,925 z" fill="#FFCCB2"/>
      <path d="M287.833,925 L287.833,988.333 L194.5,988.333 L194.5,1048.333 L124.5,1048.333 L124.5,925 L287.833,925 z" fill-opacity="0" stroke="#000000" stroke-width="1"/>
    </g>
    <text transform="matrix(1, 0, 0, 1, 535.5, 989)">
      <tspan x="-8.22" y="8" font-family="HelveticaNeue-Bold" font-size="24" fill="#000000">A</tspan>
    </text>
    <text transform="matrix(1, 0, 0, 1, 293.5, 1048.833)">
      <tspan x="-8.892" y="8" font-family="HelveticaNeue-Bold" font-size="24" fill="#000000">C</tspan>
    </text>
    <text transform="matrix(1, 0, 0, 1, 133.667, 1081.833)">
      <tspan x="-8.892" y="8" font-family="HelveticaNeue-Bold" font-size="24" fill="#000000">D</tspan>
    </text>
    <text transform="matrix(1, 0, 0, 1, 204.551, 972.833)">
      <tspan x="-7.776" y="8" font-family="HelveticaNeue-Bold" font-size="24" fill="#000000">E</tspan>
    </text>
    <text transform="matrix(1, 0, 0, 1, 436.167, 1072)">
      <tspan x="-8.448" y="8" font-family="HelveticaNeue-Bold" font-size="24" fill="#000000">B</tspan>
    </text>
    <text transform="matrix(1, 0, 0, 1, 229.167, 900.833)">
      <tspan x="-7.116" y="8" font-family="HelveticaNeue-Bold" font-size="24" fill="#000000">F</tspan>
    </text>
    <text transform="matrix(1, 0, 0, 1, 354.5, 915.167)">
      <tspan x="-28.44" y="8" font-family="HelveticaNeue-Bold" font-size="24" fill="#000000">C (G)</tspan>
    </text>
    <text transform="matrix(1, 0, 0, 1, 485.333, 888.5)">
      <tspan x="-8.892" y="8" font-family="HelveticaNeue-Bold" font-size="24" fill="#000000">H</tspan>
    </text>
    <g>
      <path d="M59.5,413.5 L709.5,413.5 L709.5,773.5 L59.5,773.5 L59.5,413.5 z" fill="#FFFFFF"/>
      <path d="M59.5,413.5 L709.5,413.5 L709.5,773.5 L59.5,773.5 L59.5,413.5 z" fill-opacity="0" stroke="#000000" stroke-width="1"/>
    </g>
    <g>
      <path d="M90.167,652.333 L178.167,652.333 L178.167,720.333 L90.167,720.333 L90.167,652.333 z" fill="#FFE5E5"/>
      <path d="M90.167,652.333 L178.167,652.333 L178.167,720.333 L90.167,720.333 L90.167,652.333 z" fill-opacity="0" stroke="#000000" stroke-width="1"/>
    </g>
    <g>
      <path d="M287.833,447 L422.167,447 L422.167,592.333 L287.833,592.333 L287.833,447 z" fill="#33FFBA"/>
      <path d="M287.833,447 L422.167,447 L422.167,592.333 L287.833,592.333 L287.833,447 z" fill-opacity="0" stroke="#000000" stroke-width="1"/>
    </g>
    <g>
      <path d="M171.5,481.667 L287.833,481.667 L287.833,529 L171.5,529 L171.5,481.667 z" fill="#FFF6E5"/>
      <path d="M171.5,481.667 L287.833,481.667 L287.833,529 L171.5,529 L171.5,481.667 z" fill-opacity="0" stroke="#000000" stroke-width="1"/>
    </g>
    <g>
      <path d="M422.167,464.333 L549.5,464.333 L549.5,521.667 L422.167,521.667 L422.167,464.333 z" fill="#E5FFFF"/>
      <path d="M422.167,464.333 L549.5,464.333 L549.5,521.667 L422.167,521.667 L422.167,464.333 z" fill-opacity="0" stroke="#000000" stroke-width="1"/>
    </g>
    <g>
      <path d="M393.167,613 L393.167,592.333 L422.167,592.333 L422.167,521.667 L632.167,521.667 L632.167,582.333 L653.5,582.333 L653.5,640.333 L678.833,640.333 L678.833,673 L616.833,673 L616.833,647 L583.5,647 L583.5,673 L542.833,673 L542.833,647 L512.167,647 L512.167,694.333 L480.167,694.333 L480.167,613 L393.167,613 z" fill="#F6FFE5"/>
      <path d="M393.167,613 L393.167,592.333 L422.167,592.333 L422.167,521.667 L632.167,521.667 L632.167,582.333 L653.5,582.333 L653.5,640.333 L678.833,640.333 L678.833,673 L616.833,673 L616.833,647 L583.5,647 L583.5,673 L542.833,673 L542.833,647 L512.167,647 L512.167,694.333 L480.167,694.333 L480.167,613 L393.167,613 z" fill-opacity="0" stroke="#000000" stroke-width="1"/>
    </g>
    <g>
      <path d="M480.167,740 L430.167,740 L430.167,700 L393.167,700 L393.167,613 L480.167,613 L480.167,740 z" fill="#EEFFE5"/>
      <path d="M480.167,740 L430.167,740 L430.167,700 L393.167,700 L393.167,613 L480.167,613 L480.167,740 z" fill-opacity="0" stroke="#000000" stroke-width="1"/>
    </g>
    <g>
      <path d="M194.833,592.333 L393.167,592.333 L393.167,714.333 L194.833,714.333 L194.833,592.333 z" fill="#FFFF33"/>
      <path d="M194.833,592.333 L393.167,592.333 L393.167,714.333 L194.833,714.333 L194.833,592.333 z" fill-opacity="0" stroke="#000000" stroke-width="1"/>
    </g>
    <g>
      <path d="M287.833,529 L287.833,592.333 L194.5,592.333 L194.5,652.333 L124.5,652.333 L124.5,529 L287.833,529 z" fill="#FFEEE5"/>
      <path d="M287.833,529 L287.833,592.333 L194.5,592.333 L194.5,652.333 L124.5,652.333 L124.5,529 L287.833,529 z" fill-opacity="0" stroke="#000000" stroke-width="1"/>
    </g>
    <text transform="matrix(1, 0, 0, 1, 535.5, 593)">
      <tspan x="-8.22" y="8" font-family="HelveticaNeue-Bold" font-size="24" fill="#000000">A</tspan>
    </text>
    <text transform="matrix(1, 0, 0, 1, 293.5, 652.833)">
      <tspan x="-8.892" y="8" font-family="HelveticaNeue-Bold" font-size="24" fill="#000000">C</tspan>
    </text>
    <text transform="matrix(1, 0, 0, 1, 133.667, 685.833)">
      <tspan x="-8.892" y="8" font-family="HelveticaNeue-Bold" font-size="24" fill="#000000">D</tspan>
    </text>
    <text transform="matrix(1, 0, 0, 1, 204.551, 576.833)">
      <tspan x="-7.776" y="8" font-family="HelveticaNeue-Bold" font-size="24" fill="#000000">E</tspan>
    </text>
    <text transform="matrix(1, 0, 0, 1, 436.167, 676)">
      <tspan x="-8.448" y="8" font-family="HelveticaNeue-Bold" font-size="24" fill="#000000">B</tspan>
    </text>
    <text transform="matrix(1, 0, 0, 1, 229.167, 504.833)">
      <tspan x="-7.116" y="8" font-family="HelveticaNeue-Bold" font-size="24" fill="#000000">F</tspan>
    </text>
    <text transform="matrix(1, 0, 0, 1, 354.5, 519.167)">
      <tspan x="-9.108" y="8" font-family="HelveticaNeue-Bold" font-size="24" fill="#000000">G</tspan>
    </text>
    <text transform="matrix(1, 0, 0, 1, 485.333, 492.5)">
      <tspan x="-8.892" y="8" font-family="HelveticaNeue-Bold" font-size="24" fill="#000000">H</tspan>
    </text>
    <g>
      <g>
        <path d="M302.892,569.167 C302.892,569.5 313.5,587.5 313.5,587.5 L297.833,586.833 L313.5,592.333 L302.892,608.5 L316.167,597.833 L325.167,613 C325.167,613 334.5,599.5 334.5,599.5 C334.5,599.5 341.5,611.167 341.5,611.167 C341.5,611.167 353.167,599.167 353.167,599.167 C353.167,599.167 364.108,613 364.108,613 C364.108,613 364.108,596.167 364.108,596.167 C364.108,596.167 379.833,602.167 379.833,602.167 C379.833,602.167 364.108,590.167 364.108,590.167 L379.833,586.833 L364.108,584.5 C364.108,584.5 371.5,562.333 371.5,562.333 C371.5,562.333 355.5,581.5 355.5,581.5 C355.5,581.5 349.167,567.5 349.167,567.5 C349.167,567.5 345.892,582.833 345.892,582.833 L339.5,563.833 L330.833,578.5 L326.833,559.5 L317.5,577.167 C317.5,577.167 302.892,568.833 302.892,569.167 z" fill="#FF3336"/>
        <path d="M302.892,569.167 C302.892,569.5 313.5,587.5 313.5,587.5 L297.833,586.833 L313.5,592.333 L302.892,608.5 L316.167,597.833 L325.167,613 C325.167,613 334.5,599.5 334.5,599.5 C334.5,599.5 341.5,611.167 341.5,611.167 C341.5,611.167 353.167,599.167 353.167,599.167 C353.167,599.167 364.108,613 364.108,613 C364.108,613 364.108,596.167 364.108,596.167 C364.108,596.167 379.833,602.167 379.833,602.167 C379.833,602.167 364.108,590.167 364.108,590.167 L379.833,586.833 L364.108,584.5 C364.108,584.5 371.5,562.333 371.5,562.333 C371.5,562.333 355.5,581.5 355.5,581.5 C355.5,581.5 349.167,567.5 349.167,567.5 C349.167,567.5 345.892,582.833 345.892,582.833 L339.5,563.833 L330.833,578.5 L326.833,559.5 L317.5,577.167 C317.5,577.167 302.892,568.833 302.892,569.167 z" fill-opacity="0" stroke="#000000" stroke-width="1"/>
      </g>
      <g>
        <path d="M311.635,576.917 C311.635,577.148 317.968,588.25 317.968,588.25 L313.635,589.583 L317.968,592.083 L313.635,596.917 L319.968,594.917 L324.968,606.25 C324.968,606.25 334.301,594.917 334.301,594.917 C334.301,594.917 342.861,605.476 342.861,605.476 C342.861,605.476 354.301,595.25 354.301,595.25 C354.301,595.25 361.968,603.25 361.968,603.25 L360.301,592.083 C360.301,592.083 366.032,571.552 366.032,571.552 C366.032,571.552 354.635,587.917 354.635,587.917 C354.635,587.917 350.635,575.917 350.635,575.917 C350.635,575.917 346.36,592.083 346.36,592.083 L338.968,572.25 L330.635,583.583 L326.301,570.25 L319.635,581.583 C319.635,581.583 311.635,576.685 311.635,576.917 z" fill="#FFFFFF"/>
        <path d="M311.635,576.917 C311.635,577.148 317.968,588.25 317.968,588.25 L313.635,589.583 L317.968,592.083 L313.635,596.917 L319.968,594.917 L324.968,606.25 C324.968,606.25 334.301,594.917 334.301,594.917 C334.301,594.917 342.861,605.476 342.861,605.476 C342.861,605.476 354.301,595.25 354.301,595.25 C354.301,595.25 361.968,603.25 361.968,603.25 L360.301,592.083 C360.301,592.083 366.032,571.552 366.032,571.552 C366.032,571.552 354.635,587.917 354.635,587.917 C354.635,587.917 350.635,575.917 350.635,575.917 C350.635,575.917 346.36,592.083 346.36,592.083 L338.968,572.25 L330.635,583.583 L326.301,570.25 L319.635,581.583 C319.635,581.583 311.635,576.685 311.635,576.917 z" fill-opacity="0" stroke="#000000" stroke-width="1"/>
      </g>
    </g>
  </g>
</svg>
